<svg width="176" height="40" viewBox="0 0 176 40" fill="none" xmlns="http://www.w3.org/2000/svg">
<path d="M1.07548 27.5555L21.5322 39.1971C22.4578 39.7233 23.5043 40 24.569 40C25.6338 40 26.6803 39.7233 27.6059 39.1971L48.0626 27.5555C48.3878 27.37 48.6581 27.1017 48.8462 26.778C49.0342 26.4542 49.1333 26.0865 49.1333 25.7121C49.1333 25.3377 49.0342 24.97 48.8462 24.6462C48.6581 24.3225 48.3878 24.0542 48.0626 23.8687L27.6059 12.2318C26.6803 11.7056 25.6338 11.4289 24.569 11.4289C23.5043 11.4289 22.4578 11.7056 21.5322 12.2318L1.07548 23.8687C0.749054 24.0532 0.477484 24.3211 0.288526 24.645C0.099568 24.9689 0 25.3371 0 25.7121C0 26.0871 0.099568 26.4553 0.288526 26.7792C0.477484 27.1031 0.749054 27.3709 1.07548 27.5555Z" fill="#3E8ECC"/>
<path opacity="0.7" d="M1.07548 16.1313L21.5322 27.7682C22.4578 28.2944 23.5043 28.5711 24.569 28.5711C25.6338 28.5711 26.6803 28.2944 27.6059 27.7682L48.0626 16.1313C48.3878 15.9458 48.6581 15.6775 48.8462 15.3538C49.0342 15.03 49.1333 14.6623 49.1333 14.2879C49.1333 13.9135 49.0342 13.5458 48.8462 13.222C48.6581 12.8983 48.3878 12.63 48.0626 12.4445L27.6059 0.802908C26.6803 0.276677 25.6338 0 24.569 0C23.5043 0 22.4578 0.276677 21.5322 0.802908L1.07548 12.4445C0.749054 12.6291 0.477484 12.8969 0.288526 13.2208C0.099568 13.5447 0 13.9129 0 14.2879C0 14.6629 0.099568 15.0311 0.288526 15.355C0.477484 15.6789 0.749054 15.9468 1.07548 16.1313Z" fill="#57B5FF"/>
<path d="M64.8848 13.4371H69.0584V20.1347H69.1009C69.3656 18.3953 71.1239 17.9132 72.8444 17.9132H74.0827C79.3671 17.9132 80.0193 19.8038 80.0193 22.6398V24.6391C80.0193 27.4751 79.3671 29.3657 74.0827 29.3657H72.8633C70.344 29.3657 69.2994 28.5197 68.8409 27.149H68.7984V29.1956H64.8848V13.4371ZM68.7984 24.1759C68.7984 25.8539 69.6681 26.2226 71.3224 26.2226H73.7755C75.7796 26.2226 75.9734 25.5278 75.9734 24.2847V22.9801C75.9734 21.7417 75.7796 21.0469 73.7755 21.0469H71.3224C69.6681 21.0469 68.7984 21.4156 68.7984 23.0888V24.1759Z" fill="#4D4D4D"/>
<path d="M81.3003 13.4371H85.4786V29.1814H81.3003V13.4371Z" fill="#4D4D4D"/>
<path d="M87.019 22.3089C87.019 18.6553 89.4721 17.9132 91.6038 17.9132H97.843C99.9699 17.9132 102.428 18.6553 102.428 22.3089V24.9606C102.428 28.6142 99.9699 29.3516 97.843 29.3516H91.6038C89.4721 29.3516 87.019 28.6142 87.019 24.9606V22.3089ZM90.9799 22.6493C89.4532 23.5331 89.8077 24.1098 91.4762 24.7526L92.3459 25.0882C94.7092 25.991 95.4797 25.9768 96.9024 25.1544L98.3629 24.3036C99.7809 23.4811 99.6627 23.1125 97.3136 22.2097L96.425 21.8741C94.7612 21.2313 93.4898 21.184 91.9631 22.0679L90.9799 22.6493Z" fill="#4D4D4D"/>
<path d="M103.515 13.4371H107.693V21.7417H108.473L112.151 18.0881H117.629L112.023 23.2873L118.267 29.1814H112.968L108.506 24.7431H107.675V29.1814H103.515V13.4371Z" fill="#4D4D4D"/>
<path d="M119.935 21.0895H117.846V18.0881H119.935V15.479H124.109V18.0881H130.589V21.0895H124.109V25.3434C124.109 26.1706 124.719 26.3455 125.721 26.3455C127.068 26.3455 127.436 26.0382 127.436 25.0173V24.2847H131.09V25.6365C131.09 27.7445 129.701 29.3516 126.364 29.3516H124.709C122.143 29.3516 119.926 28.5481 119.926 25.4805L119.935 21.0895Z" fill="#4D4D4D"/>
<path d="M132.347 18.0881H136.266V20.2009H136.308C136.781 18.4379 138.483 17.9132 140.373 17.9132C143.417 17.9132 144.627 19.2225 144.627 22.2853C144.627 22.5689 144.627 22.8714 144.585 23.2637H140.973C140.973 21.8457 140.647 21.1793 138.974 21.1793C137.556 21.1793 136.54 21.7228 136.54 23.0463V29.1909H132.347V18.0881Z" fill="#4D4D4D"/>
<path d="M144.414 25.2867C144.414 22.2664 146.503 22.0915 150.559 22.0915C152.842 22.0915 154.104 22.1577 154.907 22.9801V22.0017C154.907 20.9146 154.581 20.527 152.951 20.527H150.493C149.273 20.527 148.928 20.6357 148.886 21.4156H144.84C144.84 18.4142 146.319 17.9132 149.84 17.9132H154.69C157.559 17.9132 159.081 19.2839 159.081 21.893V29.1814H155.125V27.9194C153.971 29.1153 153.537 29.3374 151.447 29.3374H148.612C146.064 29.3374 144.433 28.7938 144.433 26.1848L144.414 25.2867ZM151.854 26.7425C154.723 26.7425 154.983 26.3077 154.983 25.5703C154.983 24.7431 154.747 24.4406 152.44 24.4406H150.592C148.829 24.4406 148.46 24.8282 148.46 25.7452C148.46 26.4589 149.027 26.7425 150.658 26.7425H151.854Z" fill="#4D4D4D"/>
<path d="M160.234 13.4371H164.408V21.7417H165.193L168.865 18.0881H174.343L168.78 23.2873L175.019 29.1814H169.688L165.23 24.7431H164.403V29.1814H160.234V13.4371Z" fill="#4D4D4D"/>
</svg>
