<svg width="201" height="46" viewBox="0 0 201 46" fill="none" xmlns="http://www.w3.org/2000/svg">
<path d="M78.6399 14.6314C79.9016 15.4551 80.9176 16.6056 81.5805 17.9612C82.3783 19.5186 82.7698 21.2533 82.7188 23.0035C82.7642 24.7344 82.3379 26.4449 81.4856 27.9506C80.7527 29.3344 79.586 30.4376 78.1657 31.0902C76.6162 31.7925 74.9334 32.1495 73.2332 32.1367C72.2251 32.1417 71.226 31.9478 70.2926 31.5659C69.3648 31.3036 68.5171 30.8131 67.8264 30.1388V39.6525H62.3247V13.8703H67.0675V15.9633C68.9614 14.3732 71.3335 13.4685 73.8023 13.3946C75.5078 13.2478 77.2126 13.6837 78.6399 14.6314ZM75.8891 26.4284C76.3673 26.0012 76.7434 25.4715 76.9897 24.8786C77.236 24.2857 77.3461 23.6449 77.312 23.0035C77.3251 22.3364 77.206 21.6734 76.9618 21.0528C76.7176 20.4323 76.353 19.8665 75.8891 19.3883C75.4791 18.9461 74.9786 18.5981 74.4219 18.3682C73.8652 18.1383 73.2656 18.0319 72.664 18.0563C71.5524 18.1165 70.5035 18.5916 69.7235 19.3883C68.9216 19.7947 68.2848 20.467 67.9212 21.291V25.4771C68.1998 26.2893 68.732 26.9899 69.4389 27.4749C70.2236 28.0107 71.1458 28.3081 72.0949 28.3312C72.8261 28.3042 73.5431 28.1205 74.1976 27.7923C74.8521 27.4641 75.4289 26.999 75.8891 26.4284V26.4284Z" fill="#8247E5"/>
<path d="M85.9439 18.0564C86.8076 16.6612 88.0167 15.5141 89.4536 14.7265C91.1266 13.8735 92.984 13.4487 94.8604 13.4898C96.6461 13.4471 98.4119 13.8735 99.9826 14.7265C101.396 15.5536 102.573 16.7335 103.397 18.1515C104.245 19.5548 104.673 21.1729 104.631 22.8132C104.676 24.4838 104.248 26.1331 103.397 27.5701C102.61 28.9925 101.422 30.1507 99.9826 30.8999C98.4002 31.7221 96.6424 32.1465 94.8604 32.1367C93.0988 32.1504 91.354 31.7939 89.7381 31.0902C88.2973 30.3514 87.084 29.2332 86.2285 27.8555C85.4092 26.3024 84.9856 24.5703 84.9953 22.8132C84.8964 21.172 85.2232 19.5331 85.9439 18.0564V18.0564ZM91.5404 26.3333C91.9305 26.7479 92.401 27.0783 92.923 27.304C93.4449 27.5298 94.0074 27.6463 94.5758 27.6463C95.1442 27.6463 95.7067 27.5298 96.2286 27.304C96.7506 27.0783 97.221 26.7479 97.6112 26.3333C98.3904 25.3301 98.7933 24.0842 98.7495 22.8132C98.8137 21.5685 98.4072 20.3454 97.6112 19.3883C97.2697 18.9872 96.8489 18.6617 96.3753 18.4324C95.9018 18.2031 95.3859 18.0751 94.8604 18.0564C94.2264 17.9881 93.5854 18.0735 92.9912 18.3052C92.397 18.537 91.8669 18.9084 91.4455 19.3883C90.6803 20.3989 90.2791 21.6397 90.3073 22.9084C90.2876 24.1627 90.7262 25.381 91.5404 26.3333V26.3333Z" fill="#8247E5"/>
<path d="M113.262 0.360779V31.661H107.761V0.360779H113.262Z" fill="#8247E5"/>
<path d="M135.838 14.4411L124.645 40.1282H119.333L123.507 30.6145L115.539 14.1557H121.8L126.353 24.4305L130.906 14.1557L135.838 14.4411Z" fill="#8247E5"/>
<path d="M156.896 14.4411V31.661C156.917 33.2666 156.418 34.8356 155.473 36.1325C154.531 37.5186 153.215 38.6074 151.679 39.272C150.048 40.0423 148.265 40.4326 146.462 40.4136C145.234 40.5773 143.99 40.5773 142.763 40.4136L140.202 38.4158C139.34 37.9139 138.543 37.3067 137.83 36.6081L141.055 32.8026C141.753 33.4929 142.553 34.0706 143.427 34.5151C144.344 34.9571 145.349 35.1848 146.367 35.1811C147.618 35.2157 148.848 34.8491 149.877 34.1346C150.378 33.8934 150.812 33.5334 151.143 33.0858C151.473 32.6382 151.69 32.1165 151.774 31.5659V28.902C151.189 29.8629 150.33 30.6253 149.308 31.0902C148.065 31.6835 146.7 31.9767 145.324 31.9464C143.781 31.9667 142.265 31.537 140.96 30.7096C139.628 29.8838 138.52 28.7398 137.735 27.3798C136.932 25.9579 136.507 24.3524 136.502 22.7181C136.491 21.0515 136.916 19.4111 137.735 17.9612C138.534 16.555 139.676 15.3761 141.055 14.5363C142.326 13.7114 143.811 13.2811 145.324 13.2995C146.611 13.2819 147.893 13.4747 149.118 13.8703C150.102 14.1677 150.987 14.7266 151.679 15.4876L151.774 14.4411H156.896ZM151.774 25.0014V20.8153C151.415 19.9644 150.78 19.2602 149.972 18.8174C149.075 18.3099 148.061 18.0475 147.031 18.0563C145.778 18.0182 144.556 18.4604 143.616 19.2931C143.141 19.7431 142.768 20.2904 142.523 20.8978C142.277 21.5052 142.165 22.1584 142.194 22.8132C142.182 23.4658 142.303 24.1139 142.547 24.7187C142.792 25.3235 143.155 25.8727 143.616 26.3333C144.532 27.227 145.753 27.7373 147.031 27.7604C147.993 27.7565 148.937 27.4998 149.77 27.0156C150.602 26.5315 151.293 25.837 151.774 25.0014V25.0014Z" fill="#8247E5"/>
<path d="M161.26 18.0563C162.13 16.642 163.336 15.4655 164.769 14.6314C166.357 13.823 168.111 13.3994 169.892 13.3946C171.677 13.3519 173.443 13.7783 175.014 14.6314C176.428 15.4584 177.604 16.6383 178.429 18.0563C179.248 19.5063 179.673 21.1466 179.662 22.8132C179.707 24.4838 179.279 26.1331 178.429 27.5701C177.671 29.0148 176.475 30.1807 175.014 30.8999C173.415 31.6774 171.668 32.0993 169.892 32.1367C168.118 32.165 166.364 31.7738 164.769 30.995C163.308 30.2865 162.087 29.1613 161.26 27.7604C160.391 26.2268 159.964 24.481 160.027 22.7181C159.994 21.079 160.421 19.4638 161.26 18.0563V18.0563ZM166.761 26.3333C167.152 26.7479 167.622 27.0783 168.144 27.304C168.666 27.5298 169.228 27.6463 169.797 27.6463C170.365 27.6463 170.928 27.5298 171.45 27.304C171.972 27.0783 172.442 26.7479 172.832 26.3333C173.611 25.3301 174.014 24.0841 173.97 22.8132C174.088 21.5931 173.75 20.3726 173.022 19.3883C172.641 18.9608 172.173 18.6206 171.649 18.3908C171.125 18.161 170.558 18.0469 169.986 18.0563C169.416 18.053 168.851 18.1698 168.328 18.3993C167.805 18.6287 167.336 18.9656 166.951 19.3883C166.531 19.85 166.206 20.3901 165.995 20.9777C165.783 21.5654 165.689 22.1891 165.718 22.8132C165.764 24.0848 166.194 25.3124 166.951 26.3333H166.761Z" fill="#8247E5"/>
<path d="M199.202 14.9168C199.734 15.3776 200.161 15.947 200.456 16.5869C200.75 17.2268 200.905 17.9224 200.909 18.6272V31.661H195.408V20.8153C195.408 19.1029 194.554 18.2466 192.847 18.2466C192.225 18.242 191.613 18.408 191.078 18.7265C190.543 19.0451 190.105 19.5042 189.811 20.0542C189.014 21.4399 188.62 23.0219 188.673 24.6208V31.661H183.171V14.4411H188.199V17.105C188.807 16.0006 189.732 15.1055 190.855 14.5363C192.046 13.7903 193.436 13.4253 194.839 13.4898C196.418 13.4128 197.971 13.9207 199.202 14.9168V14.9168Z" fill="#8247E5"/>
<path d="M38.8005 14.1557C38.3102 13.8718 37.754 13.7223 37.1879 13.7223C36.6218 13.7223 36.0656 13.8718 35.5754 14.1557L28.4612 18.4369L23.4338 21.3861L16.035 25.7625C15.5447 26.0464 14.9886 26.1958 14.4225 26.1958C13.8563 26.1958 13.3002 26.0464 12.8099 25.7625L6.64426 22.2424C6.13923 21.962 5.72132 21.5471 5.43674 21.0434C5.15216 20.5397 5.01198 19.9669 5.03171 19.3883V12.7286C5.00075 12.1481 5.13615 11.5709 5.42191 11.0651C5.70766 10.5593 6.13183 10.1462 6.64426 9.87452L12.4305 6.63985C12.9208 6.35595 13.4769 6.20648 14.043 6.20648C14.6092 6.20648 15.1653 6.35595 15.6556 6.63985L21.4418 9.87452C21.9259 10.1548 22.3291 10.5565 22.6118 11.0402C22.8945 11.5238 23.047 12.0729 23.0544 12.6335V17.0098L28.4612 14.2508V9.87452C28.4689 9.26098 28.2793 8.66127 27.9205 8.1643C27.5617 7.66733 27.0528 7.29956 26.4692 7.11554L15.7504 0.360779C15.2459 0.123175 14.6953 -7.62939e-06 14.1379 -7.62939e-06C13.5805 -7.62939e-06 13.0299 0.123175 12.5253 0.360779L1.61689 7.0204C1.10446 7.29207 0.680292 7.70521 0.394535 8.21098C0.108777 8.71676 -0.0266251 9.29402 0.00433397 9.87452V22.4327C-0.00849462 22.9973 0.135533 23.5544 0.420312 24.0416C0.705091 24.5289 1.11939 24.927 1.61689 25.1916L12.5253 31.4707C13.0156 31.7546 13.5718 31.9041 14.1379 31.9041C14.704 31.9041 15.2602 31.7546 15.7504 31.4707L23.1492 27.1895L28.4612 24.2403L35.8599 19.9591C36.3502 19.6752 36.9064 19.5257 37.4725 19.5257C38.0386 19.5257 38.5948 19.6752 39.085 19.9591L44.8713 23.2889C45.3554 23.5692 45.7586 23.9709 46.0413 24.4545C46.324 24.9382 46.4765 25.4873 46.4838 26.0479V32.8026C46.4966 33.3673 46.3526 33.9244 46.0678 34.4116C45.783 34.8988 45.3687 35.297 44.8713 35.5616L39.085 39.0817C38.5948 39.3656 38.0386 39.5151 37.4725 39.5151C36.9064 39.5151 36.3502 39.3656 35.8599 39.0817L30.0737 35.7519C29.6014 35.4583 29.2076 35.0536 28.9266 34.5728C28.6456 34.092 28.4858 33.5497 28.4612 32.9929V28.902L23.4338 31.7561V36.2276C23.4949 36.6638 23.6442 37.0829 23.8726 37.4591C24.101 37.8354 24.4035 38.1609 24.7618 38.4157L35.6702 44.6948C36.1748 44.9324 36.7254 45.0556 37.2828 45.0556C37.8402 45.0556 38.3907 44.9324 38.8953 44.6948L49.8038 38.4157C50.2879 38.1355 50.6911 37.7338 50.9738 37.2501C51.2565 36.7664 51.409 36.2174 51.4163 35.6568V23.2889C51.4291 22.7243 51.2851 22.1672 51.0003 21.6799C50.7156 21.1927 50.3013 20.7945 49.8038 20.5299L38.8005 14.1557Z" fill="#8247E5"/>
</svg>
