<svg width="176" height="71" viewBox="0 0 176 71" fill="none" xmlns="http://www.w3.org/2000/svg">
<path d="M58.3268 39.032H71.9449V41.9865H61.8268V48.3086H70.6721V51.2949H61.8268V60.2222H58.3268V39.032Z" fill="#101010"/>
<path d="M75.7235 38.7143H79.2874V41.7324H75.7235V38.7143ZM75.819 44.3692H79.1598L79.1913 60.2222H75.819V44.3692Z" fill="#101010"/>
<path d="M83.9886 45.5764C84.943 45.0893 86.099 44.6975 87.4566 44.4009C88.8355 44.0833 90.1506 43.9245 91.4027 43.9245C93.6296 43.9245 95.2739 44.3904 96.3338 45.3223C97.3945 46.2542 97.9253 47.705 97.9253 49.6747V60.2222H94.584V50.1195C94.584 47.8956 93.3217 46.7837 90.7979 46.7837C89.5891 46.7837 88.4323 46.9849 87.3299 47.3873V60.2222H83.9886V45.5764Z" fill="#101010"/>
<path d="M109.537 43.9245C111.276 43.9245 112.75 44.348 113.959 45.1952C115.19 46.0212 115.795 47.3661 115.773 49.23V56.8546C115.773 58.2948 115.136 59.3008 113.864 59.8727C112.591 60.4234 110.778 60.6987 108.423 60.6987C106.536 60.6987 104.976 60.3068 103.745 59.5232C102.515 58.7396 101.9 57.4264 101.9 55.5838C101.9 53.8471 102.399 52.5446 103.396 51.6762C104.414 50.8079 105.846 50.3736 107.692 50.3736C109.6 50.3736 111.191 50.7549 112.464 51.5173V49.9924C112.464 47.8321 111.16 46.7519 108.551 46.7519C107.617 46.7519 106.684 46.9002 105.75 47.1967C104.817 47.472 104.043 47.8638 103.427 48.3721V45.2588C104.022 44.8775 104.881 44.5598 106.005 44.3056C107.151 44.0515 108.328 43.9245 109.537 43.9245ZM108.805 58.0936C110.141 58.0936 111.086 57.9983 111.637 57.8077C112.188 57.6171 112.464 57.2358 112.464 56.664V53.5824C111.382 53.1164 110.194 52.8834 108.9 52.8834C107.692 52.8834 106.769 53.0952 106.132 53.5188C105.517 53.9424 105.209 54.5778 105.209 55.425C105.209 56.3145 105.559 56.9816 106.259 57.4264C106.98 57.8712 107.829 58.0936 108.805 58.0936Z" fill="#101010"/>
<path d="M120.499 45.5764C121.453 45.0893 122.609 44.6975 123.967 44.4009C125.346 44.0833 126.661 43.9245 127.912 43.9245C130.14 43.9245 131.783 44.3904 132.844 45.3223C133.905 46.2542 134.435 47.705 134.435 49.6747V60.2222H131.094V50.1195C131.094 47.8956 129.832 46.7837 127.307 46.7837C126.099 46.7837 124.943 46.9849 123.839 47.3873V60.2222H120.499V45.5764Z" fill="#101010"/>
<path d="M146.174 60.5398C143.925 60.5398 142.048 59.8939 140.542 58.6019C139.057 57.31 138.315 55.2238 138.315 52.3434C138.315 49.3782 139.047 47.2391 140.51 45.9259C141.995 44.5916 143.873 43.9245 146.142 43.9245C147.86 43.9245 149.494 44.2421 151.042 44.8775V47.8638C149.43 47.1861 147.956 46.8473 146.619 46.8473C144.944 46.8473 143.692 47.2708 142.865 48.118C142.038 48.944 141.624 50.2678 141.624 52.0892C141.624 53.9953 142.027 55.3932 142.833 56.2827C143.639 57.1511 144.933 57.5852 146.715 57.5852C148.157 57.5852 149.61 57.2358 151.074 56.5369V59.5232C149.546 60.201 147.913 60.5398 146.174 60.5398Z" fill="#101010"/>
<path d="M161.513 43.8927C163.995 43.8927 165.809 44.6975 166.954 46.3072C168.121 47.8956 168.694 50.1301 168.673 53.0105H157.472C157.579 54.5778 158.035 55.7744 158.84 56.6004C159.668 57.4053 160.834 57.8077 162.341 57.8077C163.316 57.8077 164.249 57.6912 165.141 57.4582C166.031 57.2041 166.816 56.8863 167.495 56.5051V59.6185C165.841 60.3386 163.942 60.6987 161.8 60.6987C159.402 60.6987 157.515 59.9786 156.136 58.5384C154.778 57.077 154.1 55.0119 154.1 52.3433C154.1 49.6111 154.747 47.5249 156.041 46.0847C157.335 44.6234 159.158 43.8927 161.513 43.8927ZM161.418 46.6248C160.294 46.6248 159.413 46.9213 158.777 47.5144C158.14 48.1074 157.727 49.1134 157.536 50.5325H165.268C165.119 49.177 164.738 48.1921 164.123 47.5779C163.508 46.9426 162.606 46.6248 161.418 46.6248Z" fill="#101010"/>
<path d="M42.7133 9.74973C45.9529 9.74973 48.5791 12.3719 48.5791 15.6065V55.4325C48.5791 58.6672 45.9529 61.2893 42.7133 61.2893C39.4738 61.2893 36.8476 58.6672 36.8476 55.4325V15.6065C36.8476 12.3719 39.4738 9.74973 42.7133 9.74973Z" fill="url(#paint0_linear_214_3110)"/>
<path d="M26.8176 26.1488C29.7653 26.1488 32.155 28.5347 32.155 31.4779V45.6892C32.155 48.6324 29.7653 51.0183 26.8176 51.0183C23.8698 51.0183 21.4803 48.6324 21.4803 45.6892V31.4779C21.4803 28.5347 23.8698 26.1488 26.8176 26.1488Z" fill="url(#paint1_linear_214_3110)"/>
<path d="M18.077 24.4498C18.077 21.5065 15.6873 19.1206 12.7396 19.1206C9.79184 19.1206 7.40225 21.5065 7.40225 24.4498V26.2262C7.40225 29.1694 9.79184 31.5554 12.7396 31.5554C15.6873 31.5554 18.077 29.1694 18.077 26.2262V24.4498Z" fill="url(#paint2_linear_214_3110)"/>
<path d="M26.8176 12.0925C29.7653 12.0925 32.155 14.4784 32.155 17.4217V19.1981C32.155 22.1413 29.7653 24.5272 26.8176 24.5272C23.8698 24.5272 21.4803 22.1413 21.4803 19.1981V17.4217C21.4803 14.4784 23.8698 12.0925 26.8176 12.0925Z" fill="url(#paint3_linear_214_3110)"/>
<path d="M71.4725 29.6349L67.1729 23.3444L63.351 29.6349H58.1258L64.7245 19.7371L57.8868 9.74973H63.8884L68.2179 16.0701L71.9204 9.74973H77.265L70.726 19.7371L77.474 29.6349H71.4725Z" fill="url(#paint4_linear_214_3110)"/>
<path d="M79.9135 9.74973H93.5588V13.4763H84.7509V17.7992H92.3949V21.5556H84.7509V25.9083H93.5588V29.6349H79.9135V9.74973Z" fill="url(#paint5_linear_214_3110)"/>
<path d="M114.991 9.74973V29.6349H111.348L102.062 17.5309V29.6349H97.6135V9.74973H101.734L110.542 21.5854V9.74973H114.991Z" fill="url(#paint6_linear_214_3110)"/>
<path d="M119.22 9.74973H127.222C130.566 9.74973 133.044 10.5845 134.657 12.254C136.269 13.9037 137.075 16.388 137.075 19.7073C137.075 23.0065 136.269 25.4909 134.657 27.1604C133.044 28.8101 130.566 29.6349 127.222 29.6349H119.22V9.74973ZM126.655 25.9083C128.466 25.9083 129.83 25.4015 130.745 24.3878C131.661 23.3742 132.119 21.814 132.119 19.7073C132.119 17.5607 131.661 15.9906 130.745 14.9968C129.83 13.9831 128.466 13.4763 126.655 13.4763H124.057V25.9083H126.655Z" fill="url(#paint7_linear_214_3110)"/>
<defs>
<linearGradient id="paint0_linear_214_3110" x1="52.2657" y1="45.8081" x2="7.44543" y2="15.4046" gradientUnits="userSpaceOnUse">
<stop stop-color="#2042B8"/>
<stop offset="0.933726" stop-color="#FF6600"/>
</linearGradient>
<linearGradient id="paint1_linear_214_3110" x1="52.2657" y1="45.8081" x2="7.44542" y2="15.4046" gradientUnits="userSpaceOnUse">
<stop stop-color="#2042B8"/>
<stop offset="0.933726" stop-color="#FF6600"/>
</linearGradient>
<linearGradient id="paint2_linear_214_3110" x1="52.2657" y1="45.808" x2="7.44545" y2="15.4046" gradientUnits="userSpaceOnUse">
<stop stop-color="#2042B8"/>
<stop offset="0.933726" stop-color="#FF6600"/>
</linearGradient>
<linearGradient id="paint3_linear_214_3110" x1="52.2657" y1="45.8081" x2="7.44542" y2="15.4046" gradientUnits="userSpaceOnUse">
<stop stop-color="#2042B8"/>
<stop offset="0.933726" stop-color="#FF6600"/>
</linearGradient>
<linearGradient id="paint4_linear_214_3110" x1="87.5858" y1="9.78841" x2="165.892" y2="91.8732" gradientUnits="userSpaceOnUse">
<stop stop-color="#2042B8"/>
<stop offset="0.54856" stop-color="#FF6600"/>
</linearGradient>
<linearGradient id="paint5_linear_214_3110" x1="87.5858" y1="9.78841" x2="165.892" y2="91.8732" gradientUnits="userSpaceOnUse">
<stop stop-color="#2042B8"/>
<stop offset="0.54856" stop-color="#FF6600"/>
</linearGradient>
<linearGradient id="paint6_linear_214_3110" x1="87.5858" y1="9.78841" x2="165.892" y2="91.8733" gradientUnits="userSpaceOnUse">
<stop stop-color="#2042B8"/>
<stop offset="0.54856" stop-color="#FF6600"/>
</linearGradient>
<linearGradient id="paint7_linear_214_3110" x1="87.5858" y1="9.78841" x2="165.892" y2="91.8732" gradientUnits="userSpaceOnUse">
<stop stop-color="#2042B8"/>
<stop offset="0.54856" stop-color="#FF6600"/>
</linearGradient>
</defs>
</svg>
