<svg width="210" height="45" viewBox="0 0 210 45" fill="none" xmlns="http://www.w3.org/2000/svg">
<g clip-path="url(#clip0_211_161)">
<path d="M65.4588 23.9434V23.416C65.4588 22.0907 65.0105 21.0764 64.1145 20.3731C63.2455 19.6429 62.1049 19.2777 60.6927 19.2777C59.6065 19.2777 58.7509 19.4671 58.1265 19.8457C57.529 20.1973 56.9587 20.7383 56.4156 21.4686C56.2526 21.685 56.0762 21.8337 55.886 21.9148C55.696 21.996 55.438 22.0366 55.112 22.0366H53.89C53.5913 22.0366 53.3197 21.9284 53.0754 21.712C52.858 21.4956 52.7632 21.2387 52.7901 20.9412C52.8717 20.1297 53.2653 19.3318 53.9714 18.5474C54.7047 17.736 55.6688 17.0733 56.8636 16.5594C58.0586 16.0455 59.335 15.7886 60.6927 15.7886C63.2183 15.7886 65.2549 16.4918 66.8028 17.8983C68.3779 19.3048 69.1656 21.2792 69.1656 23.8217V36.1959C69.1656 36.4935 69.0568 36.7506 68.8397 36.9669C68.6223 37.1831 68.3644 37.2914 68.0657 37.2914H66.5584C66.2597 37.2914 66.0019 37.1831 65.7845 36.9669C65.5673 36.7506 65.4588 36.4935 65.4588 36.1959V34.5325C65.0243 35.5063 64.1008 36.2772 62.6886 36.8452C61.2765 37.4133 59.8643 37.6971 58.4522 37.6971C57.0673 37.6971 55.8318 37.4536 54.7454 36.9669C53.6592 36.4528 52.8173 35.7632 52.2198 34.8976C51.6495 34.0321 51.3645 33.0585 51.3645 31.9765C51.3645 29.9479 52.125 28.3657 53.6457 27.2296C55.1664 26.0666 57.1896 25.2823 59.7151 24.8766L65.4588 23.9434ZM65.4588 27.1893L60.652 27.9599C58.8867 28.2304 57.5155 28.6768 56.5379 29.2989C55.5603 29.8939 55.0713 30.6512 55.0713 31.571C55.0713 32.247 55.3836 32.8557 56.0083 33.3967C56.6327 33.9375 57.5834 34.208 58.8598 34.208C60.815 34.208 62.4036 33.6536 63.6256 32.5445C64.8475 31.4357 65.4588 29.9885 65.4588 28.2034V27.1893Z" fill="#363FF9"/>
<path d="M78.8155 36.1959C78.8155 36.4935 78.7069 36.7506 78.4895 36.9669C78.2724 37.1831 78.0143 37.2914 77.7156 37.2914H76.2086C75.9098 37.2914 75.6517 37.1831 75.4346 36.9669C75.2172 36.7506 75.1086 36.4935 75.1086 36.1959V9.58115C75.1086 9.28363 75.2172 9.02667 75.4346 8.81028C75.6517 8.5939 75.9098 8.48572 76.2086 8.48572H77.7156C78.0143 8.48572 78.2724 8.5939 78.4895 8.81028C78.7069 9.02667 78.8155 9.28363 78.8155 9.58115V36.1959Z" fill="#363FF9"/>
<path d="M93.4883 34.208C96.2041 34.208 98.037 33.1532 98.9877 31.0433C99.1776 30.6378 99.3678 30.3537 99.558 30.1914C99.7479 30.0291 100.006 29.9479 100.332 29.9479H101.554C101.853 29.9479 102.11 30.0561 102.328 30.2727C102.545 30.4619 102.654 30.6918 102.654 30.9623C102.654 31.8819 102.287 32.869 101.554 33.9241C100.821 34.9789 99.7616 35.8714 98.3764 36.6017C96.9915 37.332 95.3622 37.6971 93.4883 37.6971C91.5603 37.6971 89.8901 37.2914 88.4782 36.4801C87.066 35.6685 85.9796 34.5597 85.2194 33.1532C84.4589 31.7196 84.0381 30.1238 83.9565 28.3657C83.9292 28.0412 83.9158 27.4191 83.9158 26.4993C83.9158 25.8503 83.9292 25.3905 83.9565 25.12C84.201 22.3611 85.1377 20.1162 86.7673 18.3852C88.3966 16.6541 90.6371 15.7886 93.4883 15.7886C95.3622 15.7886 96.978 16.1537 98.3358 16.884C99.7207 17.5872 100.766 18.4663 101.472 19.5212C102.206 20.549 102.599 21.5227 102.654 22.4423C102.681 22.7398 102.572 22.9968 102.328 23.2131C102.11 23.4295 101.853 23.5377 101.554 23.5377H100.332C100.006 23.5377 99.7479 23.4566 99.558 23.2943C99.3678 23.132 99.1776 22.848 98.9877 22.4423C98.037 20.3326 96.2041 19.2777 93.4883 19.2777C91.9948 19.2777 90.6912 19.7781 89.5778 20.7789C88.4644 21.7796 87.8263 23.2943 87.6633 25.3229C87.6363 25.6204 87.6226 26.1072 87.6226 26.7835C87.6226 27.4055 87.6363 27.8653 87.6633 28.1628C87.8535 30.1914 88.4917 31.706 89.5778 32.7068C90.6912 33.7076 91.9948 34.208 93.4883 34.208Z" fill="#363FF9"/>
<path d="M126.348 36.1959C126.348 36.4935 126.24 36.7506 126.023 36.9669C125.805 37.1831 125.548 37.2914 125.249 37.2914H123.742C123.443 37.2914 123.185 37.1831 122.968 36.9669C122.75 36.7506 122.642 36.4935 122.642 36.1959V25.4852C122.642 23.4566 122.139 21.9149 121.135 20.86C120.13 19.8051 118.731 19.2777 116.939 19.2777C115.174 19.2777 113.775 19.8051 112.743 20.86C111.739 21.9149 111.236 23.4566 111.236 25.4852V36.1959C111.236 36.4935 111.127 36.7506 110.91 36.9669C110.693 37.1831 110.435 37.2914 110.136 37.2914H108.629C108.33 37.2914 108.072 37.1831 107.855 36.9669C107.638 36.7506 107.529 36.4935 107.529 36.1959V9.58115C107.529 9.28363 107.638 9.02667 107.855 8.81028C108.072 8.5939 108.33 8.48572 108.629 8.48572H110.136C110.435 8.48572 110.693 8.5939 110.91 8.81028C111.127 9.02667 111.236 9.28363 111.236 9.58115V18.5474C111.833 17.763 112.648 17.1139 113.68 16.6C114.739 16.059 116.029 15.7886 117.55 15.7886C119.261 15.7886 120.781 16.1537 122.112 16.884C123.443 17.6143 124.475 18.6691 125.208 20.0486C125.968 21.4009 126.348 23.0103 126.348 24.8766V36.1959Z" fill="#363FF9"/>
<path d="M140.623 15.7886C143.529 15.7886 145.823 16.7082 147.507 18.5474C149.191 20.3867 150.033 22.8886 150.033 26.0532V27.1486C150.033 27.4461 149.924 27.703 149.707 27.9195C149.489 28.1358 149.231 28.2441 148.933 28.2441H134.92V28.4873C134.974 30.2727 135.517 31.679 136.549 32.7068C137.608 33.7076 138.966 34.208 140.623 34.208C141.981 34.208 143.026 34.0321 143.759 33.6806C144.52 33.3291 145.199 32.8287 145.796 32.1794C146.013 31.9631 146.203 31.8142 146.366 31.7332C146.557 31.652 146.801 31.6113 147.1 31.6113H148.322C148.648 31.6113 148.919 31.7196 149.136 31.9361C149.354 32.1524 149.449 32.4093 149.422 32.7068C149.313 33.4371 148.905 34.1946 148.199 34.9789C147.52 35.7362 146.529 36.3855 145.226 36.9262C143.949 37.4403 142.415 37.6971 140.623 37.6971C138.885 37.6971 137.337 37.305 135.979 36.5205C134.621 35.7092 133.535 34.6001 132.72 33.1938C131.933 31.7872 131.457 30.205 131.294 28.4469C131.24 27.6354 131.213 27.0134 131.213 26.5806C131.213 26.1478 131.24 25.5257 131.294 24.7143C131.457 23.0373 131.933 21.5227 132.72 20.1703C133.535 18.8179 134.608 17.7495 135.938 16.9652C137.296 16.1808 138.858 15.7886 140.623 15.7886ZM146.366 24.836V24.7143C146.366 23.0644 145.837 21.7526 144.778 20.7789C143.746 19.7781 142.361 19.2777 140.623 19.2777C139.048 19.2777 137.704 19.7781 136.59 20.7789C135.504 21.7796 134.947 23.0914 134.92 24.7143V24.836H146.366Z" fill="#363FF9"/>
<path d="M158.654 18.5474C159.305 17.709 160.039 17.0463 160.853 16.5594C161.668 16.0455 162.754 15.7886 164.112 15.7886C167.289 15.7886 169.516 16.9652 170.792 19.3183C171.58 18.1823 172.476 17.3168 173.481 16.7217C174.486 16.0996 175.803 15.7886 177.432 15.7886C180.093 15.7886 182.062 16.5865 183.339 18.1823C184.642 19.7781 185.294 22.0366 185.294 24.9577V36.1959C185.294 36.4935 185.185 36.7506 184.968 36.9669C184.751 37.1831 184.493 37.2914 184.194 37.2914H182.687C182.388 37.2914 182.13 37.1831 181.913 36.9669C181.696 36.7506 181.587 36.4935 181.587 36.1959V25.3634C181.587 21.3063 179.985 19.2777 176.78 19.2777C175.314 19.2777 174.146 19.7646 173.277 20.7383C172.408 21.712 171.974 23.1591 171.974 25.0794V36.1959C171.974 36.4935 171.865 36.7506 171.648 36.9669C171.431 37.1831 171.173 37.2914 170.874 37.2914H169.367C169.068 37.2914 168.81 37.1831 168.593 36.9669C168.375 36.7506 168.267 36.4935 168.267 36.1959V25.3634C168.267 21.3063 166.665 19.2777 163.46 19.2777C161.994 19.2777 160.826 19.7646 159.957 20.7383C159.088 21.712 158.654 23.1591 158.654 25.0794V36.1959C158.654 36.4935 158.545 36.7506 158.328 36.9669C158.11 37.1831 157.852 37.2914 157.554 37.2914H156.046C155.748 37.2914 155.49 37.1831 155.272 36.9669C155.055 36.7506 154.947 36.4935 154.947 36.1959V17.2897C154.947 16.9922 155.055 16.7352 155.272 16.5189C155.49 16.3025 155.748 16.1943 156.046 16.1943H157.554C157.852 16.1943 158.11 16.3025 158.328 16.5189C158.545 16.7352 158.654 16.9922 158.654 17.2897V18.5474Z" fill="#363FF9"/>
<path d="M196.703 44.0262C196.458 44.6755 196.065 45 195.521 45H193.851C193.58 45 193.349 44.9054 193.159 44.7161C192.969 44.5266 192.874 44.2967 192.874 44.0262C192.874 43.9182 192.887 43.8233 192.914 43.7423L196.825 35.2628L188.759 17.452C188.732 17.3708 188.719 17.2762 188.719 17.168C188.719 16.8975 188.814 16.6676 189.004 16.4783C189.194 16.2889 189.425 16.1943 189.696 16.1943H191.366C191.909 16.1943 192.303 16.5189 192.548 17.168L198.821 30.9623L205.175 17.168C205.42 16.5189 205.814 16.1943 206.357 16.1943H208.027C208.298 16.1943 208.529 16.2889 208.719 16.4783C208.909 16.6676 209.004 16.8975 209.004 17.168C209.004 17.2762 208.991 17.3708 208.964 17.452L196.703 44.0262Z" fill="#363FF9"/>
<path d="M35.9633 23.8697L22.2854 0.384387C22.2191 0.268421 22.1232 0.171821 22.0073 0.104336C21.8914 0.0368509 21.7596 0.000866965 21.6252 1.5471e-05C21.4907 -0.000836023 21.3585 0.0334749 21.2417 0.099486C21.1249 0.165497 21.0278 0.260874 20.9601 0.375992L16.8637 7.4132C16.7296 7.64355 16.6589 7.90485 16.6589 8.17084C16.6589 8.43683 16.7296 8.69814 16.8637 8.92849L25.7826 24.2496C25.9168 24.4802 26.1101 24.6716 26.3427 24.8046C26.5754 24.9376 26.8393 25.0075 27.1078 25.0072H35.3007C35.4347 25.0068 35.5664 24.9716 35.6824 24.9049C35.7986 24.8383 35.8949 24.7426 35.9621 24.6274C36.0289 24.5123 36.0645 24.3817 36.0648 24.2487C36.0648 24.1158 36.03 23.985 35.9633 23.8697Z" fill="url(#paint0_radial_211_161)"/>
<path d="M0.109865 36.144L13.7878 12.6587C13.8549 12.5436 13.9514 12.4481 14.0675 12.3817C14.1836 12.3153 14.3152 12.2803 14.4493 12.2803C14.5834 12.2803 14.7151 12.3153 14.8312 12.3817C14.9473 12.4481 15.0438 12.5436 15.1109 12.6587L19.2094 19.6896C19.3435 19.9203 19.4141 20.182 19.4141 20.4483C19.4141 20.7146 19.3435 20.9763 19.2094 21.207L10.2905 36.5282C10.1567 36.7586 9.96393 36.9501 9.73162 37.0831C9.4993 37.216 9.23566 37.286 8.96737 37.2857H0.772485C0.637489 37.2865 0.504728 37.2515 0.387696 37.1849C0.270661 37.1181 0.173547 37.0219 0.106222 36.9059C0.0388961 36.7899 0.00376071 36.6583 0.00440319 36.5246C0.00504566 36.3906 0.0414292 36.2595 0.109865 36.144Z" fill="url(#paint1_radial_211_161)"/>
<path d="M15.1089 37.2806H42.4647C42.599 37.2806 42.7307 37.2453 42.8469 37.1787C42.9631 37.1121 43.0594 37.0162 43.1263 36.901C43.1932 36.7858 43.2285 36.6549 43.2283 36.522C43.228 36.3888 43.1927 36.2582 43.1253 36.1432L39.033 29.1081C38.8988 28.8774 38.7055 28.6861 38.4729 28.5531C38.2402 28.4199 37.9763 28.3503 37.7078 28.3505H19.8701C19.6015 28.3503 19.3376 28.4199 19.105 28.5531C18.8723 28.6861 18.6791 28.8774 18.5448 29.1081L14.4485 36.1432C14.3812 36.2582 14.3457 36.3888 14.3455 36.522C14.3453 36.6549 14.3804 36.7858 14.4473 36.901C14.5143 37.0162 14.6107 37.1121 14.7268 37.1787C14.843 37.2453 14.9747 37.2806 15.1089 37.2806Z" fill="url(#paint2_radial_211_161)"/>
</g>
<defs>
<radialGradient id="paint0_radial_211_161" cx="0" cy="0" r="1" gradientUnits="userSpaceOnUse" gradientTransform="translate(22.9045) rotate(95.2728) scale(35.9942 48.0627)">
<stop stop-color="#05D5FF"/>
<stop offset="0.770833" stop-color="#363FF9"/>
<stop offset="1" stop-color="#5533FF"/>
</radialGradient>
<radialGradient id="paint1_radial_211_161" cx="0" cy="0" r="1" gradientUnits="userSpaceOnUse" gradientTransform="translate(22.9045 4.39747e-06) rotate(95.2728) scale(35.9942 48.0627)">
<stop stop-color="#05D5FF"/>
<stop offset="0.770833" stop-color="#363FF9"/>
<stop offset="1" stop-color="#5533FF"/>
</radialGradient>
<radialGradient id="paint2_radial_211_161" cx="0" cy="0" r="1" gradientUnits="userSpaceOnUse" gradientTransform="translate(22.9045 -5.11613e-06) rotate(95.2728) scale(35.9942 48.0627)">
<stop stop-color="#05D5FF"/>
<stop offset="0.770833" stop-color="#363FF9"/>
<stop offset="1" stop-color="#5533FF"/>
</radialGradient>
<clipPath id="clip0_211_161">
<rect width="209" height="45" fill="white" transform="translate(0.00439453)"/>
</clipPath>
</defs>
</svg>
