<svg width="185" height="57" viewBox="0 0 185 57" fill="none" xmlns="http://www.w3.org/2000/svg">
<g clip-path="url(#clip0_211_211)">
<path d="M63.3945 28C63.341 26.6808 63.5493 25.3642 64.0073 24.1259C64.4652 22.8876 65.1639 21.7523 66.0629 20.7855C66.9619 19.8186 68.0434 19.0393 69.2452 18.4926C70.4469 17.9458 71.745 17.6425 73.0645 17.6H73.4745C78.5745 17.6 81.5845 20.6 82.4745 24.11L79.3045 25.17C79.0197 23.862 78.2742 22.7 77.2039 21.896C76.1337 21.0919 74.8101 20.6994 73.4745 20.79C70.1745 20.79 66.8645 23.2 66.8645 28.06C66.8645 32.92 70.0945 35.24 73.5145 35.24C74.8567 35.2767 76.1724 34.8621 77.2511 34.0626C78.3298 33.2631 79.1092 32.1248 79.4645 30.83L82.5745 31.83C82.0377 33.8052 80.8436 35.5384 79.1893 36.7437C77.5349 37.949 75.5192 38.5544 73.4745 38.46C70.8478 38.5082 68.3094 37.5114 66.4174 35.6887C64.5253 33.8661 63.4344 31.3667 63.3845 28.74C63.3745 28.5 63.3845 28.25 63.3945 28Z" fill="#375BD2"/>
<path d="M88.7444 38H85.4644V17.54H88.7444V25.54C89.2205 24.9752 89.8194 24.5267 90.4953 24.2286C91.1712 23.9305 91.9062 23.7908 92.6444 23.82C96.0344 23.82 97.6444 26.25 97.6444 29.28V38H94.4844V29.86C94.579 29.1661 94.3973 28.4628 93.9783 27.9016C93.5593 27.3404 92.9366 26.9664 92.2444 26.86C92.0482 26.8399 91.8505 26.8399 91.6544 26.86C90.8958 26.86 90.1684 27.1613 89.632 27.6977C89.0957 28.234 88.7944 28.9615 88.7944 29.72C88.7894 29.8033 88.7894 29.8867 88.7944 29.97L88.7444 38Z" fill="#375BD2"/>
<path d="M105.004 30.12L108.524 29.57C109.324 29.47 109.524 29.06 109.524 28.57C109.524 27.41 108.744 26.48 106.924 26.48C106.237 26.4244 105.555 26.6421 105.028 27.0858C104.5 27.5294 104.168 28.1633 104.104 28.85V29L101.104 28.33C101.354 25.95 103.514 23.83 106.894 23.83C111.134 23.83 112.744 26.23 112.744 29.03V35.86C112.741 36.6001 112.798 37.3392 112.914 38.07H109.914C109.806 37.4899 109.763 36.8997 109.784 36.31C109.329 37.0108 108.698 37.58 107.954 37.9607C107.21 38.3415 106.379 38.5205 105.544 38.48C104.404 38.5741 103.273 38.2122 102.4 37.4736C101.526 36.7349 100.981 35.6799 100.884 34.54C100.884 34.47 100.884 34.4 100.884 34.34C100.834 31.81 102.644 30.45 105.004 30.12ZM109.544 32.33V31.7L105.954 32.24C105.467 32.2555 105.004 32.4587 104.663 32.8071C104.322 33.1556 104.129 33.6224 104.124 34.11C104.128 34.3516 104.18 34.59 104.277 34.8113C104.374 35.0327 104.514 35.2325 104.689 35.3991C104.864 35.5657 105.071 35.6958 105.296 35.7818C105.522 35.8678 105.763 35.908 106.004 35.9H106.154C106.564 35.9428 106.977 35.9043 107.372 35.7865C107.766 35.6688 108.133 35.4742 108.452 35.2139C108.771 34.9536 109.035 34.6329 109.229 34.2701C109.424 33.9073 109.544 33.5096 109.584 33.1C109.599 32.8423 109.582 32.5837 109.534 32.33H109.544Z" fill="#375BD2"/>
<path d="M118.324 17.26C118.606 17.256 118.886 17.3078 119.148 17.4123C119.41 17.5168 119.648 17.6721 119.85 17.8691C120.052 18.066 120.212 18.3009 120.323 18.5602C120.433 18.8195 120.492 19.0981 120.494 19.38C120.494 19.802 120.37 20.2145 120.136 20.5657C119.902 20.917 119.569 21.1913 119.18 21.3541C118.791 21.5169 118.362 21.561 117.948 21.4808C117.533 21.4006 117.152 21.1998 116.852 20.9035C116.551 20.6072 116.345 20.2287 116.259 19.8156C116.173 19.4025 116.211 18.9732 116.369 18.5816C116.526 18.1901 116.796 17.8539 117.144 17.6152C117.492 17.3764 117.902 17.2459 118.324 17.24V17.26ZM116.724 38.06V24.24H120.004V38L116.724 38.06Z" fill="#375BD2"/>
<path d="M127.474 38H124.204V24.24H127.394V26.07C127.81 25.3673 128.408 24.7895 129.124 24.3971C129.84 24.0047 130.648 23.8123 131.464 23.84C134.824 23.84 136.464 26.27 136.464 29.3V38H133.194V29.86C133.194 28.17 132.424 26.8 130.364 26.8C129.984 26.8026 129.607 26.8802 129.256 27.0284C128.905 27.1766 128.587 27.3924 128.32 27.6635C128.052 27.9347 127.841 28.2558 127.697 28.6087C127.554 28.9615 127.482 29.3392 127.484 29.72C127.484 29.83 127.484 29.94 127.484 30.05L127.474 38Z" fill="#375BD2"/>
<path d="M140.424 38V17.54H143.704V38H140.424Z" fill="#375BD2"/>
<path d="M149.554 17.26C149.976 17.258 150.39 17.3815 150.741 17.6148C151.093 17.8481 151.368 18.1806 151.53 18.5703C151.693 18.9599 151.736 19.389 151.654 19.8031C151.572 20.2172 151.369 20.5976 151.07 20.8961C150.772 21.1946 150.392 21.3977 149.977 21.4795C149.563 21.5614 149.134 21.5184 148.745 21.3559C148.355 21.1935 148.022 20.9189 147.789 20.5671C147.556 20.2153 147.432 19.8021 147.434 19.38C147.44 18.8194 147.665 18.2832 148.061 17.8867C148.458 17.4902 148.994 17.2652 149.554 17.26V17.26ZM147.944 38.06V24.24H151.194V38L147.944 38.06Z" fill="#375BD2"/>
<path d="M158.714 38H155.434V24.24H158.624V26.07C159.041 25.368 159.639 24.7908 160.354 24.3985C161.07 24.0062 161.878 23.8134 162.694 23.84C166.054 23.84 167.694 26.27 167.694 29.3V38H164.414V29.86C164.509 29.1661 164.327 28.4628 163.908 27.9016C163.489 27.3404 162.867 26.9664 162.174 26.86C161.975 26.8399 161.774 26.8399 161.574 26.86C160.81 26.8679 160.08 27.1769 159.543 27.7199C159.006 28.2629 158.704 28.996 158.704 29.76C158.694 29.8764 158.694 29.9936 158.704 30.11L158.714 38Z" fill="#375BD2"/>
<path d="M178.884 30.05L184.654 38.05H180.654L176.654 32.38L174.964 34.16V38H171.714V17.54H174.964V29.8L180.244 24.24H184.594L178.884 30.05Z" fill="#375BD2"/>
<path d="M24.5644 12L38.7444 20.14V36.5L24.6044 44.69L10.4344 36.57V20.22L24.5644 12ZM24.5644 0L19.3644 3L5.20439 11.22L0.00439453 14.22V42.59L5.20439 45.59L19.3844 53.73L24.5844 56.73L29.7844 53.73L43.9144 45.53L49.1144 42.53V14.12L43.9144 11.12L29.7444 3L24.5444 0H24.5644Z" fill="#375BD2"/>
</g>
<defs>
<clipPath id="clip0_211_211">
<rect width="184.65" height="56.71" fill="white" transform="translate(0.00439453)"/>
</clipPath>
</defs>
</svg>
