<svg xmlns="http://www.w3.org/2000/svg" viewBox="0 0 370.26 84.63"><defs><style>.cls-1{fill:#3e8ecc;}.cls-2{fill:#57b5ff;opacity:0.7;}.cls-3{fill:#4d4d4d;}</style></defs><g id="Layer_2" data-name="Layer 2"><g id="Layer_1-2" data-name="Layer 1"><path class="cls-1" d="M2.27,58.3,45.55,82.93a13,13,0,0,0,12.85,0L101.68,58.3a4.49,4.49,0,0,0,0-7.8L58.4,25.88a13,13,0,0,0-12.85,0L2.27,50.5A4.48,4.48,0,0,0,2.27,58.3Z"/><path class="cls-2" d="M2.27,34.13,45.55,58.75a13,13,0,0,0,12.85,0l43.28-24.62a4.49,4.49,0,0,0,0-7.8L58.4,1.7a13,13,0,0,0-12.85,0L2.27,26.33A4.48,4.48,0,0,0,2.27,34.13Z"/><path class="cls-3" d="M137.27,28.43h8.83V42.6h.09c.56-3.68,4.28-4.7,7.92-4.7h2.62c11.18,0,12.56,4,12.56,10v4.23c0,6-1.38,10-12.56,10h-2.58c-5.33,0-7.54-1.79-8.51-4.69h-.09v4.33h-8.28Zm8.28,22.72c0,3.55,1.84,4.33,5.34,4.33h5.19c4.24,0,4.65-1.47,4.65-4.1V48.62c0-2.62-.41-4.09-4.65-4.09h-5.19c-3.5,0-5.34.78-5.34,4.32Z"/><path class="cls-3" d="M172,28.43h8.84V61.74H172Z"/><path class="cls-3" d="M184.1,47.2c0-7.73,5.19-9.3,9.7-9.3H207c4.5,0,9.7,1.57,9.7,9.3v5.61c0,7.73-5.2,9.29-9.7,9.29H193.8c-4.51,0-9.7-1.56-9.7-9.29Zm8.38.72c-3.23,1.87-2.48,3.09,1.05,4.45l1.84.71c5,1.91,6.63,1.88,9.64.14l3.09-1.8c3-1.74,2.75-2.52-2.22-4.43L204,46.28c-3.52-1.36-6.21-1.46-9.44.41Z"/><path class="cls-3" d="M219,28.43h8.84V46h1.65l7.78-7.73h11.59L237,49.27l13.21,12.47H239l-9.44-9.39H227.8v9.39H219Z"/><path class="cls-3" d="M253.74,44.62h-4.42V38.27h4.42V32.75h8.83v5.52h13.71v6.35H262.57v9c0,1.75,1.29,2.12,3.41,2.12,2.85,0,3.63-.65,3.63-2.81V51.38h7.73v2.86c0,4.46-2.94,7.86-10,7.86h-3.5c-5.43,0-10.12-1.7-10.12-8.19Z"/><path class="cls-3" d="M280,38.27h8.29v4.47h.09c1-3.73,4.6-4.84,8.6-4.84,6.44,0,9,2.77,9,9.25,0,.6,0,1.24-.09,2.07h-7.64c0-3-.69-4.41-4.23-4.41-3,0-5.15,1.15-5.15,3.95v13H280Z"/><path class="cls-3" d="M305.53,53.5c0-6.39,4.42-6.76,13-6.76,4.83,0,7.5.14,9.2,1.88V46.55c0-2.3-.69-3.12-4.14-3.12h-5.2c-2.58,0-3.31.23-3.4,1.88h-8.56c0-6.35,3.13-7.41,10.58-7.41h10.26c6.07,0,9.29,2.9,9.29,8.42V61.74h-8.37V59.07c-2.44,2.53-3.36,3-7.78,3h-6c-5.39,0-8.84-1.15-8.84-6.67Zm15.74,3.08c6.07,0,6.62-.92,6.62-2.48,0-1.75-.5-2.39-5.38-2.39H318.6c-3.73,0-4.51.82-4.51,2.76,0,1.51,1.2,2.11,4.65,2.11Z"/><path class="cls-3" d="M339,28.43h8.83V46h1.66l7.77-7.73h11.59l-11.77,11,13.2,12.47H359l-9.43-9.39h-1.75v9.39H339Z"/></g></g></svg>